<svg xmlns="http://www.w3.org/2000/svg" width="1280" height="720" viewBox="0 0 320 180"><rect width="320" height="180" fill="#E8E6E1"/><g transform="translate(-6 0) scale(1.65)"><circle cx="54" cy="54" r="22" fill="none" stroke="#FF5B1F" stroke-width="13"/><path d="M38.4 38.4 A22 22 0 0 1 69.6 38.4" fill="none" stroke="#CFCBC3" stroke-width="13"/><path d="M32 32 L76 76 M76 32 L32 76" stroke="#E8E6E1" stroke-width="1.6"/><circle cx="54" cy="54" r="10" fill="#2B2B2B"/><path d="M-3 1.6 L0 -1.6 L3 1.6" transform="translate(54 32) rotate(0)" fill="none" stroke="#8A8780" stroke-width="1.6" stroke-linecap="round" stroke-linejoin="round"/><path d="M-3 1.6 L0 -1.6 L3 1.6" transform="translate(54 76) rotate(180)" fill="none" stroke="#FFFFFF" stroke-width="1.6" stroke-linecap="round" stroke-linejoin="round"/><path d="M-3 1.6 L0 -1.6 L3 1.6" transform="translate(32 54) rotate(-90)" fill="none" stroke="#FFFFFF" stroke-width="1.6" stroke-linecap="round" stroke-linejoin="round"/><path d="M-3 1.6 L0 -1.6 L3 1.6" transform="translate(76 54) rotate(90)" fill="none" stroke="#FFFFFF" stroke-width="1.6" stroke-linecap="round" stroke-linejoin="round"/></g><text x="138" y="78" font-family="Menlo" font-size="8" fill="#8A8780" letter-spacing="2.2">TV LAUNCHER</text><text x="136" y="112" font-family="Helvetica Neue" font-weight="700" font-size="36" fill="#2B2B2B">UnitedU</text><line x1="138" y1="126" x2="290" y2="126" stroke="#C9C5BD" stroke-width="1"/><circle cx="296" cy="24" r="3.2" fill="#FF5B1F"/></svg>