<svg xmlns="http://www.w3.org/2000/svg" width="1640" height="1912" viewBox="0 0 1640 1912"><rect width="1640" height="1912" fill="#151517"/><text x="40" y="56" font-family="PingFang SC, Hiragino Sans GB, sans-serif" font-size="30" font-weight="600" fill="#F2F2F2">UnitedU 图标 + Banner · 10 个方向(2026-10-01)</text><svg x="40" y="122" width="210" height="210" viewBox="18 18 72 72"><clipPath id="o01iclip"><circle cx="54" cy="54" r="36"/></clipPath><g clip-path="url(#o01iclip)"><rect width="108" height="108" fill="#EFE8DA"/><circle cx="54" cy="64" r="8.5" fill="#E0402C"/><rect x="40" y="40" width="13" height="13" fill="#F2B705"/><path d="M55.5 53 L68.5 53 L62 40.5 Z" fill="#2156A8"/><path d="M35 40 V60 A19 19 0 0 0 73 60 V40" fill="none" stroke="#1B1B1B" stroke-width="8"/></g></svg><svg x="276" y="92" width="500" height="281.25" viewBox="0 0 320 180"><clipPath id="o01bbclip"><rect width="320" height="180" rx="6.40"/></clipPath><g clip-path="url(#o01bbclip)"><rect width="320" height="180" fill="#EFE8DA"/><g transform="translate(-6 -2) scale(1.55)"><circle cx="54" cy="64" r="8.5" fill="#E0402C"/><rect x="40" y="40" width="13" height="13" fill="#F2B705"/><path d="M55.5 53 L68.5 53 L62 40.5 Z" fill="#2156A8"/><path d="M35 40 V60 A19 19 0 0 0 73 60 V40" fill="none" stroke="#1B1B1B" stroke-width="8"/></g><text x="128" y="106" font-family="Futura" font-weight="700" font-size="38" fill="#1B1B1B">United<tspan fill="#E0402C">U</tspan></text></g></svg><text x="40" y="404" font-family="PingFang SC, Hiragino Sans GB, sans-serif" font-size="24" font-weight="600" fill="#F2F2F2">01  托盘</text><text x="170" y="404" font-family="PingFang SC, Hiragino Sans GB, sans-serif" font-size="20" fill="#B9B9C0">一只碗只装你放进去的东西:三种形状 = 你挑的应用</text><text x="170" y="432" font-family="PingFang SC, Hiragino Sans GB, sans-serif" font-size="17" fill="#7E7E88">包豪斯平面 · 奶油底 + 红黄蓝</text><svg x="840" y="122" width="210" height="210" viewBox="18 18 72 72"><clipPath id="o02iclip"><circle cx="54" cy="54" r="36"/></clipPath><g clip-path="url(#o02iclip)"><rect width="108" height="108" fill="#172541"/><path d="M41 50 V63 A13 13 0 0 0 67 63 V50" fill="none" stroke="#E5502F" stroke-width="12"/><rect x="35" y="50" width="12" height="7" fill="#F3E9D2"/><rect x="61" y="50" width="12" height="7" fill="#F3E9D2"/><rect x="34" y="32" width="10" height="10" rx="2.5" fill="#3FB3A9" transform="rotate(-14 39 37)"/><rect x="49" y="27" width="10" height="10" rx="2.5" fill="#F0B43C" transform="rotate(9 54 32)"/><rect x="64" y="32" width="10" height="10" rx="2.5" fill="#F3E9D2" transform="rotate(18 69 37)"/></g></svg><svg x="1076" y="92" width="500" height="281.25" viewBox="0 0 320 180"><clipPath id="o02bbclip"><rect width="320" height="180" rx="6.40"/></clipPath><g clip-path="url(#o02bbclip)"><rect width="320" height="180" fill="#172541"/><g transform="translate(-14 -2) scale(1.6)"><path d="M41 50 V63 A13 13 0 0 0 67 63 V50" fill="none" stroke="#E5502F" stroke-width="12"/><rect x="35" y="50" width="12" height="7" fill="#F3E9D2"/><rect x="61" y="50" width="12" height="7" fill="#F3E9D2"/><rect x="34" y="32" width="10" height="10" rx="2.5" fill="#3FB3A9" transform="rotate(-14 39 37)"/><rect x="49" y="27" width="10" height="10" rx="2.5" fill="#F0B43C" transform="rotate(9 54 32)"/><rect x="64" y="32" width="10" height="10" rx="2.5" fill="#F3E9D2" transform="rotate(18 69 37)"/></g><text x="124" y="110" font-family="Gill Sans" font-weight="700" font-size="42" fill="#F3E9D2">UnitedU</text></g></svg><text x="840" y="404" font-family="PingFang SC, Hiragino Sans GB, sans-serif" font-size="24" font-weight="600" fill="#F2F2F2">02  磁铁</text><text x="970" y="404" font-family="PingFang SC, Hiragino Sans GB, sans-serif" font-size="20" fill="#B9B9C0">U 形磁铁把你的应用吸到一起</text><text x="970" y="432" font-family="PingFang SC, Hiragino Sans GB, sans-serif" font-size="17" fill="#7E7E88">中世纪海报 · 藏青 + 朱红</text><svg x="40" y="482" width="210" height="210" viewBox="18 18 72 72"><clipPath id="o03iclip"><circle cx="54" cy="54" r="36"/></clipPath><g clip-path="url(#o03iclip)"><rect width="108" height="108" fill="#0D0D0F"/><rect x="60" y="37" width="17" height="17" rx="4" fill="#3A3A41"/><rect x="37" y="60" width="17" height="17" rx="4" fill="#3A3A41"/><rect x="60" y="60" width="17" height="17" rx="4" fill="#3A3A41"/><rect x="34.5" y="34.5" width="22" height="22" rx="5.5" fill="#C8F560"/><rect x="31" y="31" width="29" height="29" rx="8.5" fill="none" stroke="#FFFFFF" stroke-width="2.2"/></g></svg><svg x="276" y="452" width="500" height="281.25" viewBox="0 0 320 180"><clipPath id="o03bbclip"><rect width="320" height="180" rx="6.40"/></clipPath><g clip-path="url(#o03bbclip)"><rect width="320" height="180" fill="#0D0D0F"/><rect x="26" y="34" width="56" height="32" rx="5" fill="#2E2E34"/><rect x="170" y="34" width="56" height="32" rx="5" fill="#2E2E34"/><rect x="242" y="34" width="56" height="32" rx="5" fill="#2E2E34"/><rect x="93" y="31" width="66" height="38" rx="6" fill="#C8F560"/><rect x="89" y="27" width="74" height="46" rx="9" fill="none" stroke="#FFFFFF" stroke-width="2.2"/><text x="26" y="140" font-family="Avenir Next" font-weight="600" font-size="38" fill="#FFFFFF" letter-spacing="-0.5">unitedu<tspan fill="#C8F560">.</tspan></text></g></svg><text x="40" y="764" font-family="PingFang SC, Hiragino Sans GB, sans-serif" font-size="24" font-weight="600" fill="#F2F2F2">03  焦点</text><text x="170" y="764" font-family="PingFang SC, Hiragino Sans GB, sans-serif" font-size="20" fill="#B9B9C0">电视遥控的核心是焦点:你按到哪,哪里亮</text><text x="170" y="792" font-family="PingFang SC, Hiragino Sans GB, sans-serif" font-size="17" fill="#7E7E88">极简黑 + 荧光青柠</text><svg x="840" y="482" width="210" height="210" viewBox="18 18 72 72"><clipPath id="o04iclip"><circle cx="54" cy="54" r="36"/></clipPath><g clip-path="url(#o04iclip)"><rect width="108" height="108" fill="#E8E6E1"/><circle cx="54" cy="54" r="22" fill="none" stroke="#FF5B1F" stroke-width="13"/><path d="M38.4 38.4 A22 22 0 0 1 69.6 38.4" fill="none" stroke="#CFCBC3" stroke-width="13"/><path d="M32 32 L76 76 M76 32 L32 76" stroke="#E8E6E1" stroke-width="1.6"/><circle cx="54" cy="54" r="10" fill="#2B2B2B"/><path d="M-3 1.6 L0 -1.6 L3 1.6" transform="translate(54 32) rotate(0)" fill="none" stroke="#8A8780" stroke-width="1.6" stroke-linecap="round" stroke-linejoin="round"/><path d="M-3 1.6 L0 -1.6 L3 1.6" transform="translate(54 76) rotate(180)" fill="none" stroke="#FFFFFF" stroke-width="1.6" stroke-linecap="round" stroke-linejoin="round"/><path d="M-3 1.6 L0 -1.6 L3 1.6" transform="translate(32 54) rotate(-90)" fill="none" stroke="#FFFFFF" stroke-width="1.6" stroke-linecap="round" stroke-linejoin="round"/><path d="M-3 1.6 L0 -1.6 L3 1.6" transform="translate(76 54) rotate(90)" fill="none" stroke="#FFFFFF" stroke-width="1.6" stroke-linecap="round" stroke-linejoin="round"/></g></svg><svg x="1076" y="452" width="500" height="281.25" viewBox="0 0 320 180"><clipPath id="o04bbclip"><rect width="320" height="180" rx="6.40"/></clipPath><g clip-path="url(#o04bbclip)"><rect width="320" height="180" fill="#E8E6E1"/><g transform="translate(-6 0) scale(1.65)"><circle cx="54" cy="54" r="22" fill="none" stroke="#FF5B1F" stroke-width="13"/><path d="M38.4 38.4 A22 22 0 0 1 69.6 38.4" fill="none" stroke="#CFCBC3" stroke-width="13"/><path d="M32 32 L76 76 M76 32 L32 76" stroke="#E8E6E1" stroke-width="1.6"/><circle cx="54" cy="54" r="10" fill="#2B2B2B"/><path d="M-3 1.6 L0 -1.6 L3 1.6" transform="translate(54 32) rotate(0)" fill="none" stroke="#8A8780" stroke-width="1.6" stroke-linecap="round" stroke-linejoin="round"/><path d="M-3 1.6 L0 -1.6 L3 1.6" transform="translate(54 76) rotate(180)" fill="none" stroke="#FFFFFF" stroke-width="1.6" stroke-linecap="round" stroke-linejoin="round"/><path d="M-3 1.6 L0 -1.6 L3 1.6" transform="translate(32 54) rotate(-90)" fill="none" stroke="#FFFFFF" stroke-width="1.6" stroke-linecap="round" stroke-linejoin="round"/><path d="M-3 1.6 L0 -1.6 L3 1.6" transform="translate(76 54) rotate(90)" fill="none" stroke="#FFFFFF" stroke-width="1.6" stroke-linecap="round" stroke-linejoin="round"/></g><text x="138" y="78" font-family="Menlo" font-size="8" fill="#8A8780" letter-spacing="2.2">TV LAUNCHER</text><text x="136" y="112" font-family="Helvetica Neue" font-weight="700" font-size="36" fill="#2B2B2B">UnitedU</text><line x1="138" y1="126" x2="290" y2="126" stroke="#C9C5BD" stroke-width="1"/><circle cx="296" cy="24" r="3.2" fill="#FF5B1F"/></g></svg><text x="840" y="764" font-family="PingFang SC, Hiragino Sans GB, sans-serif" font-size="24" font-weight="600" fill="#F2F2F2">04  方向键</text><text x="970" y="764" font-family="PingFang SC, Hiragino Sans GB, sans-serif" font-size="20" fill="#B9B9C0">遥控器方向键,亮起的三段正好是 U</text><text x="970" y="792" font-family="PingFang SC, Hiragino Sans GB, sans-serif" font-size="17" fill="#7E7E88">工业设计(博朗风)· 浅灰 + 橙</text><svg x="40" y="842" width="210" height="210" viewBox="18 18 72 72"><clipPath id="o05iclip"><circle cx="54" cy="54" r="36"/></clipPath><g clip-path="url(#o05iclip)"><rect width="108" height="108" fill="#F2ECE1"/><rect x="30" y="30" width="48" height="48" rx="3" fill="#C23B2E"/><g transform="translate(0 0.8)" fill="none" stroke="#F2ECE1" stroke-width="4.2" stroke-linejoin="miter" stroke-linecap="square"><path d="M36 51.5 L54 36 L72 51.5"/><path d="M46 50 L62 50"/><rect x="41.5" y="56" width="25" height="14.5"/></g></g></svg><svg x="276" y="812" width="500" height="281.25" viewBox="0 0 320 180"><clipPath id="o05bbclip"><rect width="320" height="180" rx="6.40"/></clipPath><g clip-path="url(#o05bbclip)"><rect width="320" height="180" fill="#F2ECE1"/><text x="54" y="107" font-family="Baskerville" font-size="44" fill="#222222">UnitedU</text><g transform="translate(213 59) scale(0.6)"><rect x="30" y="30" width="48" height="48" rx="3" fill="#C23B2E"/><g transform="translate(0 0.8)" fill="none" stroke="#F2ECE1" stroke-width="4.2" stroke-linejoin="miter" stroke-linecap="square"><path d="M36 51.5 L54 36 L72 51.5"/><path d="M46 50 L62 50"/><rect x="41.5" y="56" width="25" height="14.5"/></g></g></g></svg><text x="40" y="1124" font-family="PingFang SC, Hiragino Sans GB, sans-serif" font-size="24" font-weight="600" fill="#F2F2F2">05  印章</text><text x="170" y="1124" font-family="PingFang SC, Hiragino Sans GB, sans-serif" font-size="20" fill="#B9B9C0">United 的中文本义「合」,刻成白文印</text><text x="170" y="1152" font-family="PingFang SC, Hiragino Sans GB, sans-serif" font-size="17" fill="#7E7E88">东方 · 宣纸 + 朱砂</text><svg x="840" y="842" width="210" height="210" viewBox="18 18 72 72"><clipPath id="o06iclip"><circle cx="54" cy="54" r="36"/></clipPath><g clip-path="url(#o06iclip)"><rect width="108" height="108" fill="#0B0B0C"/><mask id="o06im" maskUnits="userSpaceOnUse" x="0" y="0" width="108" height="108"><path d="M38 33 V57 A16 16 0 0 0 70 57 V33" fill="none" stroke="#fff" stroke-width="14"/></mask><g mask="url(#o06im)"><rect x="31.000" y="20" width="6.621" height="70" fill="#D8D8D8"/><rect x="37.571" y="20" width="6.621" height="70" fill="#F2D21B"/><rect x="44.143" y="20" width="6.621" height="70" fill="#1EC8E8"/><rect x="50.714" y="20" width="6.621" height="70" fill="#22C55E"/><rect x="57.286" y="20" width="6.621" height="70" fill="#D93BCB"/><rect x="63.857" y="20" width="6.621" height="70" fill="#E8342B"/><rect x="70.429" y="20" width="6.621" height="70" fill="#2443E6"/></g></g></svg><svg x="1076" y="812" width="500" height="281.25" viewBox="0 0 320 180"><clipPath id="o06bbclip"><rect width="320" height="180" rx="6.40"/></clipPath><g clip-path="url(#o06bbclip)"><rect width="320" height="180" fill="#0B0B0C"/><g transform="translate(-14 -6) scale(1.5)"><mask id="o06bm" maskUnits="userSpaceOnUse" x="0" y="0" width="108" height="108"><path d="M38 33 V57 A16 16 0 0 0 70 57 V33" fill="none" stroke="#fff" stroke-width="14"/></mask><g mask="url(#o06bm)"><rect x="31.000" y="20" width="6.621" height="70" fill="#D8D8D8"/><rect x="37.571" y="20" width="6.621" height="70" fill="#F2D21B"/><rect x="44.143" y="20" width="6.621" height="70" fill="#1EC8E8"/><rect x="50.714" y="20" width="6.621" height="70" fill="#22C55E"/><rect x="57.286" y="20" width="6.621" height="70" fill="#D93BCB"/><rect x="63.857" y="20" width="6.621" height="70" fill="#E8342B"/><rect x="70.429" y="20" width="6.621" height="70" fill="#2443E6"/></g></g><text x="118" y="108" font-family="DIN Condensed" font-weight="700" font-size="60" fill="#FFFFFF">UnitedU</text><rect x="0.000" y="166" width="45.814" height="14" fill="#D8D8D8"/><rect x="45.714" y="166" width="45.814" height="14" fill="#F2D21B"/><rect x="91.429" y="166" width="45.814" height="14" fill="#1EC8E8"/><rect x="137.143" y="166" width="45.814" height="14" fill="#22C55E"/><rect x="182.857" y="166" width="45.814" height="14" fill="#D93BCB"/><rect x="228.571" y="166" width="45.814" height="14" fill="#E8342B"/><rect x="274.286" y="166" width="45.814" height="14" fill="#2443E6"/></g></svg><text x="840" y="1124" font-family="PingFang SC, Hiragino Sans GB, sans-serif" font-size="24" font-weight="600" fill="#F2F2F2">06  色条</text><text x="970" y="1124" font-family="PingFang SC, Hiragino Sans GB, sans-serif" font-size="20" fill="#B9B9C0">电视台测试色条裁成 U:一看就是电视的东西</text><text x="970" y="1152" font-family="PingFang SC, Hiragino Sans GB, sans-serif" font-size="17" fill="#7E7E88">广播复古 · 黑底七色</text><svg x="40" y="1202" width="210" height="210" viewBox="18 18 72 72"><clipPath id="o07iclip"><circle cx="54" cy="54" r="36"/></clipPath><g clip-path="url(#o07iclip)"><rect width="108" height="108" fill="#0F2B23"/><text x="54" y="74" text-anchor="middle" font-family="Didot" font-size="56" fill="#F1EADB">U</text><text x="54.5" y="66.5" text-anchor="middle" font-family="Didot" font-style="italic" font-size="20" fill="#C8A15A">u</text></g></svg><svg x="276" y="1172" width="500" height="281.25" viewBox="0 0 320 180"><clipPath id="o07bbclip"><rect width="320" height="180" rx="6.40"/></clipPath><g clip-path="url(#o07bbclip)"><rect width="320" height="180" fill="#0F2B23"/><text x="160" y="104" text-anchor="middle" font-family="Didot" font-size="48" fill="#F1EADB">United<tspan font-style="italic" fill="#C8A15A">U</tspan></text><line x1="132" y1="124" x2="188" y2="124" stroke="#C8A15A" stroke-width="0.9"/></g></svg><text x="40" y="1484" font-family="PingFang SC, Hiragino Sans GB, sans-serif" font-size="24" font-weight="600" fill="#F2F2F2">07  衬线</text><text x="170" y="1484" font-family="PingFang SC, Hiragino Sans GB, sans-serif" font-size="20" fill="#B9B9C0">大 U 里藏一个小 u:United + you</text><text x="170" y="1512" font-family="PingFang SC, Hiragino Sans GB, sans-serif" font-size="17" fill="#7E7E88">杂志衬线 · 墨绿 + 象牙 + 金</text><svg x="840" y="1202" width="210" height="210" viewBox="18 18 72 72"><clipPath id="o08iclip"><circle cx="54" cy="54" r="36"/></clipPath><g clip-path="url(#o08iclip)"><rect width="108" height="108" fill="#CF6847"/><linearGradient id="o08ispill" x1="0" y1="0" x2="0" y2="1"><stop offset="0" stop-color="#F6B48F"/><stop offset="1" stop-color="#CF6847"/></linearGradient><path d="M38 80 H70 L84 104 H24 Z" fill="url(#o08ispill)"/><path d="M38 80 V50 A16 16 0 0 1 70 50 V80 Z" fill="#FFF3E3"/><rect x="34" y="79" width="40" height="2.4" fill="#A9472C"/></g></svg><svg x="1076" y="1172" width="500" height="281.25" viewBox="0 0 320 180"><clipPath id="o08bbclip"><rect width="320" height="180" rx="6.40"/></clipPath><g clip-path="url(#o08bbclip)"><rect width="320" height="180" fill="#CF6847"/><g transform="translate(-8 -14) scale(1.6)"><linearGradient id="o08bspill" x1="0" y1="0" x2="0" y2="1"><stop offset="0" stop-color="#F6B48F"/><stop offset="1" stop-color="#CF6847"/></linearGradient><path d="M38 80 H70 L84 104 H24 Z" fill="url(#o08bspill)"/><path d="M38 80 V50 A16 16 0 0 1 70 50 V80 Z" fill="#FFF3E3"/><rect x="34" y="79" width="40" height="2.4" fill="#A9472C"/></g><text x="128" y="104" font-family="Avenir Next" font-weight="500" font-size="40" fill="#FFF3E3">UnitedU</text></g></svg><text x="840" y="1484" font-family="PingFang SC, Hiragino Sans GB, sans-serif" font-size="24" font-weight="600" fill="#F2F2F2">08  门洞</text><text x="970" y="1484" font-family="PingFang SC, Hiragino Sans GB, sans-serif" font-size="20" fill="#B9B9C0">U 倒过来是一扇亮着灯的门 = 回家(HOME 键)</text><text x="970" y="1512" font-family="PingFang SC, Hiragino Sans GB, sans-serif" font-size="17" fill="#7E7E88">地中海平面 · 陶土墙 + 暖光</text><svg x="40" y="1562" width="210" height="210" viewBox="18 18 72 72"><clipPath id="o09iclip"><circle cx="54" cy="54" r="36"/></clipPath><g clip-path="url(#o09iclip)"><rect width="108" height="108" fill="#FAF8F3"/><clipPath id="o09ir"><rect x="28" y="32" width="38" height="30" rx="8"/></clipPath><rect x="28" y="32" width="38" height="30" rx="8" fill="#FF6A55"/><circle cx="64" cy="62" r="16" fill="#2F55E6"/><circle cx="64" cy="62" r="16" fill="#2A1E5C" clip-path="url(#o09ir)"/></g></svg><svg x="276" y="1532" width="500" height="281.25" viewBox="0 0 320 180"><clipPath id="o09bbclip"><rect width="320" height="180" rx="6.40"/></clipPath><g clip-path="url(#o09bbclip)"><rect width="320" height="180" fill="#FAF8F3"/><g transform="translate(-8 -6) scale(1.55)"><clipPath id="o09br"><rect x="28" y="32" width="38" height="30" rx="8"/></clipPath><rect x="28" y="32" width="38" height="30" rx="8" fill="#FF6A55"/><circle cx="64" cy="62" r="16" fill="#2F55E6"/><circle cx="64" cy="62" r="16" fill="#2A1E5C" clip-path="url(#o09br)"/></g><text x="128" y="106" font-family="Avenir Next" font-weight="700" font-size="40" fill="#1D2340">United<tspan fill="#2F55E6">U</tspan></text></g></svg><text x="40" y="1844" font-family="PingFang SC, Hiragino Sans GB, sans-serif" font-size="24" font-weight="600" fill="#F2F2F2">09  交叠</text><text x="170" y="1844" font-family="PingFang SC, Hiragino Sans GB, sans-serif" font-size="20" fill="#B9B9C0">屏幕(框)和你(圆)叠在一起,重叠处是第三种颜色</text><text x="170" y="1872" font-family="PingFang SC, Hiragino Sans GB, sans-serif" font-size="17" fill="#7E7E88">扁平叠色 · 珊瑚 + 钴蓝 + 深紫</text><svg x="840" y="1562" width="210" height="210" viewBox="18 18 72 72"><clipPath id="o10iclip"><circle cx="54" cy="54" r="36"/></clipPath><g clip-path="url(#o10iclip)"><rect width="108" height="108" fill="#2A36E6"/><rect x="47.25" y="29.25" width="4.54" height="4.54" fill="#FFD23F"/><rect x="51.75" y="29.25" width="4.54" height="4.54" fill="#FFD23F"/><rect x="56.25" y="29.25" width="4.54" height="4.54" fill="#FFD23F"/><rect x="51.75" y="33.75" width="4.54" height="4.54" fill="#FFD23F"/><rect x="31.50" y="42.75" width="4.54" height="4.54" fill="#FFFFFF"/><rect x="36.00" y="42.75" width="4.54" height="4.54" fill="#FFFFFF"/><rect x="67.50" y="42.75" width="4.54" height="4.54" fill="#FFFFFF"/><rect x="72.00" y="42.75" width="4.54" height="4.54" fill="#FFFFFF"/><rect x="31.50" y="47.25" width="4.54" height="4.54" fill="#FFFFFF"/><rect x="36.00" y="47.25" width="4.54" height="4.54" fill="#FFFFFF"/><rect x="67.50" y="47.25" width="4.54" height="4.54" fill="#FFFFFF"/><rect x="72.00" y="47.25" width="4.54" height="4.54" fill="#FFFFFF"/><rect x="31.50" y="51.75" width="4.54" height="4.54" fill="#FFFFFF"/><rect x="36.00" y="51.75" width="4.54" height="4.54" fill="#FFFFFF"/><rect x="67.50" y="51.75" width="4.54" height="4.54" fill="#FFFFFF"/><rect x="72.00" y="51.75" width="4.54" height="4.54" fill="#FFFFFF"/><rect x="31.50" y="56.25" width="4.54" height="4.54" fill="#FFFFFF"/><rect x="36.00" y="56.25" width="4.54" height="4.54" fill="#FFFFFF"/><rect x="67.50" y="56.25" width="4.54" height="4.54" fill="#FFFFFF"/><rect x="72.00" y="56.25" width="4.54" height="4.54" fill="#FFFFFF"/><rect x="31.50" y="60.75" width="4.54" height="4.54" fill="#FFFFFF"/><rect x="36.00" y="60.75" width="4.54" height="4.54" fill="#FFFFFF"/><rect x="67.50" y="60.75" width="4.54" height="4.54" fill="#FFFFFF"/><rect x="72.00" y="60.75" width="4.54" height="4.54" fill="#FFFFFF"/><rect x="31.50" y="65.25" width="4.54" height="4.54" fill="#FFFFFF"/><rect x="36.00" y="65.25" width="4.54" height="4.54" fill="#FFFFFF"/><rect x="40.50" y="65.25" width="4.54" height="4.54" fill="#FFFFFF"/><rect x="45.00" y="65.25" width="4.54" height="4.54" fill="#FF5DA2"/><rect x="49.50" y="65.25" width="4.54" height="4.54" fill="#5CE1B4"/><rect x="54.00" y="65.25" width="4.54" height="4.54" fill="#5CE1B4"/><rect x="58.50" y="65.25" width="4.54" height="4.54" fill="#FF5DA2"/><rect x="63.00" y="65.25" width="4.54" height="4.54" fill="#FFFFFF"/><rect x="67.50" y="65.25" width="4.54" height="4.54" fill="#FFFFFF"/><rect x="72.00" y="65.25" width="4.54" height="4.54" fill="#FFFFFF"/><rect x="36.00" y="69.75" width="4.54" height="4.54" fill="#FFFFFF"/><rect x="40.50" y="69.75" width="4.54" height="4.54" fill="#FFFFFF"/><rect x="45.00" y="69.75" width="4.54" height="4.54" fill="#FFFFFF"/><rect x="49.50" y="69.75" width="4.54" height="4.54" fill="#FFFFFF"/><rect x="54.00" y="69.75" width="4.54" height="4.54" fill="#FFFFFF"/><rect x="58.50" y="69.75" width="4.54" height="4.54" fill="#FFFFFF"/><rect x="63.00" y="69.75" width="4.54" height="4.54" fill="#FFFFFF"/><rect x="67.50" y="69.75" width="4.54" height="4.54" fill="#FFFFFF"/><rect x="40.50" y="74.25" width="4.54" height="4.54" fill="#FFFFFF"/><rect x="45.00" y="74.25" width="4.54" height="4.54" fill="#FFFFFF"/><rect x="49.50" y="74.25" width="4.54" height="4.54" fill="#FFFFFF"/><rect x="54.00" y="74.25" width="4.54" height="4.54" fill="#FFFFFF"/><rect x="58.50" y="74.25" width="4.54" height="4.54" fill="#FFFFFF"/><rect x="63.00" y="74.25" width="4.54" height="4.54" fill="#FFFFFF"/></g></svg><svg x="1076" y="1532" width="500" height="281.25" viewBox="0 0 320 180"><clipPath id="o10bbclip"><rect width="320" height="180" rx="6.40"/></clipPath><g clip-path="url(#o10bbclip)"><rect width="320" height="180" fill="#2A36E6"/><rect x="51.00" y="57.00" width="6.04" height="6.04" fill="#FFD23F"/><rect x="57.00" y="57.00" width="6.04" height="6.04" fill="#FFD23F"/><rect x="63.00" y="57.00" width="6.04" height="6.04" fill="#FFD23F"/><rect x="57.00" y="63.00" width="6.04" height="6.04" fill="#FFD23F"/><rect x="30.00" y="75.00" width="6.04" height="6.04" fill="#FFFFFF"/><rect x="36.00" y="75.00" width="6.04" height="6.04" fill="#FFFFFF"/><rect x="78.00" y="75.00" width="6.04" height="6.04" fill="#FFFFFF"/><rect x="84.00" y="75.00" width="6.04" height="6.04" fill="#FFFFFF"/><rect x="30.00" y="81.00" width="6.04" height="6.04" fill="#FFFFFF"/><rect x="36.00" y="81.00" width="6.04" height="6.04" fill="#FFFFFF"/><rect x="78.00" y="81.00" width="6.04" height="6.04" fill="#FFFFFF"/><rect x="84.00" y="81.00" width="6.04" height="6.04" fill="#FFFFFF"/><rect x="30.00" y="87.00" width="6.04" height="6.04" fill="#FFFFFF"/><rect x="36.00" y="87.00" width="6.04" height="6.04" fill="#FFFFFF"/><rect x="78.00" y="87.00" width="6.04" height="6.04" fill="#FFFFFF"/><rect x="84.00" y="87.00" width="6.04" height="6.04" fill="#FFFFFF"/><rect x="30.00" y="93.00" width="6.04" height="6.04" fill="#FFFFFF"/><rect x="36.00" y="93.00" width="6.04" height="6.04" fill="#FFFFFF"/><rect x="78.00" y="93.00" width="6.04" height="6.04" fill="#FFFFFF"/><rect x="84.00" y="93.00" width="6.04" height="6.04" fill="#FFFFFF"/><rect x="30.00" y="99.00" width="6.04" height="6.04" fill="#FFFFFF"/><rect x="36.00" y="99.00" width="6.04" height="6.04" fill="#FFFFFF"/><rect x="78.00" y="99.00" width="6.04" height="6.04" fill="#FFFFFF"/><rect x="84.00" y="99.00" width="6.04" height="6.04" fill="#FFFFFF"/><rect x="30.00" y="105.00" width="6.04" height="6.04" fill="#FFFFFF"/><rect x="36.00" y="105.00" width="6.04" height="6.04" fill="#FFFFFF"/><rect x="42.00" y="105.00" width="6.04" height="6.04" fill="#FFFFFF"/><rect x="48.00" y="105.00" width="6.04" height="6.04" fill="#FF5DA2"/><rect x="54.00" y="105.00" width="6.04" height="6.04" fill="#5CE1B4"/><rect x="60.00" y="105.00" width="6.04" height="6.04" fill="#5CE1B4"/><rect x="66.00" y="105.00" width="6.04" height="6.04" fill="#FF5DA2"/><rect x="72.00" y="105.00" width="6.04" height="6.04" fill="#FFFFFF"/><rect x="78.00" y="105.00" width="6.04" height="6.04" fill="#FFFFFF"/><rect x="84.00" y="105.00" width="6.04" height="6.04" fill="#FFFFFF"/><rect x="36.00" y="111.00" width="6.04" height="6.04" fill="#FFFFFF"/><rect x="42.00" y="111.00" width="6.04" height="6.04" fill="#FFFFFF"/><rect x="48.00" y="111.00" width="6.04" height="6.04" fill="#FFFFFF"/><rect x="54.00" y="111.00" width="6.04" height="6.04" fill="#FFFFFF"/><rect x="60.00" y="111.00" width="6.04" height="6.04" fill="#FFFFFF"/><rect x="66.00" y="111.00" width="6.04" height="6.04" fill="#FFFFFF"/><rect x="72.00" y="111.00" width="6.04" height="6.04" fill="#FFFFFF"/><rect x="78.00" y="111.00" width="6.04" height="6.04" fill="#FFFFFF"/><rect x="42.00" y="117.00" width="6.04" height="6.04" fill="#FFFFFF"/><rect x="48.00" y="117.00" width="6.04" height="6.04" fill="#FFFFFF"/><rect x="54.00" y="117.00" width="6.04" height="6.04" fill="#FFFFFF"/><rect x="60.00" y="117.00" width="6.04" height="6.04" fill="#FFFFFF"/><rect x="66.00" y="117.00" width="6.04" height="6.04" fill="#FFFFFF"/><rect x="72.00" y="117.00" width="6.04" height="6.04" fill="#FFFFFF"/><rect x="112.00" y="73.00" width="5.04" height="5.04" fill="#FFFFFF"/><rect x="132.00" y="73.00" width="5.04" height="5.04" fill="#FFFFFF"/><rect x="112.00" y="78.00" width="5.04" height="5.04" fill="#FFFFFF"/><rect x="132.00" y="78.00" width="5.04" height="5.04" fill="#FFFFFF"/><rect x="112.00" y="83.00" width="5.04" height="5.04" fill="#FFFFFF"/><rect x="132.00" y="83.00" width="5.04" height="5.04" fill="#FFFFFF"/><rect x="112.00" y="88.00" width="5.04" height="5.04" fill="#FFFFFF"/><rect x="132.00" y="88.00" width="5.04" height="5.04" fill="#FFFFFF"/><rect x="112.00" y="93.00" width="5.04" height="5.04" fill="#FFFFFF"/><rect x="132.00" y="93.00" width="5.04" height="5.04" fill="#FFFFFF"/><rect x="112.00" y="98.00" width="5.04" height="5.04" fill="#FFFFFF"/><rect x="132.00" y="98.00" width="5.04" height="5.04" fill="#FFFFFF"/><rect x="117.00" y="103.00" width="5.04" height="5.04" fill="#FFFFFF"/><rect x="122.00" y="103.00" width="5.04" height="5.04" fill="#FFFFFF"/><rect x="127.00" y="103.00" width="5.04" height="5.04" fill="#FFFFFF"/><rect x="142.00" y="83.00" width="5.04" height="5.04" fill="#FFFFFF"/><rect x="147.00" y="83.00" width="5.04" height="5.04" fill="#FFFFFF"/><rect x="152.00" y="83.00" width="5.04" height="5.04" fill="#FFFFFF"/><rect x="157.00" y="83.00" width="5.04" height="5.04" fill="#FFFFFF"/><rect x="142.00" y="88.00" width="5.04" height="5.04" fill="#FFFFFF"/><rect x="162.00" y="88.00" width="5.04" height="5.04" fill="#FFFFFF"/><rect x="142.00" y="93.00" width="5.04" height="5.04" fill="#FFFFFF"/><rect x="162.00" y="93.00" width="5.04" height="5.04" fill="#FFFFFF"/><rect x="142.00" y="98.00" width="5.04" height="5.04" fill="#FFFFFF"/><rect x="162.00" y="98.00" width="5.04" height="5.04" fill="#FFFFFF"/><rect x="142.00" y="103.00" width="5.04" height="5.04" fill="#FFFFFF"/><rect x="162.00" y="103.00" width="5.04" height="5.04" fill="#FFFFFF"/><rect x="172.00" y="73.00" width="5.04" height="5.04" fill="#FFFFFF"/><rect x="172.00" y="83.00" width="5.04" height="5.04" fill="#FFFFFF"/><rect x="172.00" y="88.00" width="5.04" height="5.04" fill="#FFFFFF"/><rect x="172.00" y="93.00" width="5.04" height="5.04" fill="#FFFFFF"/><rect x="172.00" y="98.00" width="5.04" height="5.04" fill="#FFFFFF"/><rect x="172.00" y="103.00" width="5.04" height="5.04" fill="#FFFFFF"/><rect x="187.00" y="73.00" width="5.04" height="5.04" fill="#FFFFFF"/><rect x="187.00" y="78.00" width="5.04" height="5.04" fill="#FFFFFF"/><rect x="182.00" y="83.00" width="5.04" height="5.04" fill="#FFFFFF"/><rect x="187.00" y="83.00" width="5.04" height="5.04" fill="#FFFFFF"/><rect x="192.00" y="83.00" width="5.04" height="5.04" fill="#FFFFFF"/><rect x="197.00" y="83.00" width="5.04" height="5.04" fill="#FFFFFF"/><rect x="187.00" y="88.00" width="5.04" height="5.04" fill="#FFFFFF"/><rect x="187.00" y="93.00" width="5.04" height="5.04" fill="#FFFFFF"/><rect x="187.00" y="98.00" width="5.04" height="5.04" fill="#FFFFFF"/><rect x="192.00" y="103.00" width="5.04" height="5.04" fill="#FFFFFF"/><rect x="197.00" y="103.00" width="5.04" height="5.04" fill="#FFFFFF"/><rect x="212.00" y="83.00" width="5.04" height="5.04" fill="#FFFFFF"/><rect x="217.00" y="83.00" width="5.04" height="5.04" fill="#FFFFFF"/><rect x="222.00" y="83.00" width="5.04" height="5.04" fill="#FFFFFF"/><rect x="207.00" y="88.00" width="5.04" height="5.04" fill="#FFFFFF"/><rect x="227.00" y="88.00" width="5.04" height="5.04" fill="#FFFFFF"/><rect x="207.00" y="93.00" width="5.04" height="5.04" fill="#FFFFFF"/><rect x="212.00" y="93.00" width="5.04" height="5.04" fill="#FFFFFF"/><rect x="217.00" y="93.00" width="5.04" height="5.04" fill="#FFFFFF"/><rect x="222.00" y="93.00" width="5.04" height="5.04" fill="#FFFFFF"/><rect x="227.00" y="93.00" width="5.04" height="5.04" fill="#FFFFFF"/><rect x="207.00" y="98.00" width="5.04" height="5.04" fill="#FFFFFF"/><rect x="212.00" y="103.00" width="5.04" height="5.04" fill="#FFFFFF"/><rect x="217.00" y="103.00" width="5.04" height="5.04" fill="#FFFFFF"/><rect x="222.00" y="103.00" width="5.04" height="5.04" fill="#FFFFFF"/><rect x="227.00" y="103.00" width="5.04" height="5.04" fill="#FFFFFF"/><rect x="257.00" y="73.00" width="5.04" height="5.04" fill="#FFFFFF"/><rect x="257.00" y="78.00" width="5.04" height="5.04" fill="#FFFFFF"/><rect x="242.00" y="83.00" width="5.04" height="5.04" fill="#FFFFFF"/><rect x="247.00" y="83.00" width="5.04" height="5.04" fill="#FFFFFF"/><rect x="252.00" y="83.00" width="5.04" height="5.04" fill="#FFFFFF"/><rect x="257.00" y="83.00" width="5.04" height="5.04" fill="#FFFFFF"/><rect x="237.00" y="88.00" width="5.04" height="5.04" fill="#FFFFFF"/><rect x="257.00" y="88.00" width="5.04" height="5.04" fill="#FFFFFF"/><rect x="237.00" y="93.00" width="5.04" height="5.04" fill="#FFFFFF"/><rect x="257.00" y="93.00" width="5.04" height="5.04" fill="#FFFFFF"/><rect x="237.00" y="98.00" width="5.04" height="5.04" fill="#FFFFFF"/><rect x="257.00" y="98.00" width="5.04" height="5.04" fill="#FFFFFF"/><rect x="242.00" y="103.00" width="5.04" height="5.04" fill="#FFFFFF"/><rect x="247.00" y="103.00" width="5.04" height="5.04" fill="#FFFFFF"/><rect x="252.00" y="103.00" width="5.04" height="5.04" fill="#FFFFFF"/><rect x="257.00" y="103.00" width="5.04" height="5.04" fill="#FFFFFF"/><rect x="267.00" y="73.00" width="5.04" height="5.04" fill="#FFFFFF"/><rect x="287.00" y="73.00" width="5.04" height="5.04" fill="#FFFFFF"/><rect x="267.00" y="78.00" width="5.04" height="5.04" fill="#FFFFFF"/><rect x="287.00" y="78.00" width="5.04" height="5.04" fill="#FFFFFF"/><rect x="267.00" y="83.00" width="5.04" height="5.04" fill="#FFFFFF"/><rect x="287.00" y="83.00" width="5.04" height="5.04" fill="#FFFFFF"/><rect x="267.00" y="88.00" width="5.04" height="5.04" fill="#FFFFFF"/><rect x="287.00" y="88.00" width="5.04" height="5.04" fill="#FFFFFF"/><rect x="267.00" y="93.00" width="5.04" height="5.04" fill="#FFFFFF"/><rect x="287.00" y="93.00" width="5.04" height="5.04" fill="#FFFFFF"/><rect x="267.00" y="98.00" width="5.04" height="5.04" fill="#FFFFFF"/><rect x="287.00" y="98.00" width="5.04" height="5.04" fill="#FFFFFF"/><rect x="272.00" y="103.00" width="5.04" height="5.04" fill="#FFFFFF"/><rect x="277.00" y="103.00" width="5.04" height="5.04" fill="#FFFFFF"/><rect x="282.00" y="103.00" width="5.04" height="5.04" fill="#FFFFFF"/></g></svg><text x="840" y="1844" font-family="PingFang SC, Hiragino Sans GB, sans-serif" font-size="24" font-weight="600" fill="#F2F2F2">10  像素</text><text x="970" y="1844" font-family="PingFang SC, Hiragino Sans GB, sans-serif" font-size="20" fill="#B9B9C0">俄罗斯方块:你的应用一块块落进 U 里</text><text x="970" y="1872" font-family="PingFang SC, Hiragino Sans GB, sans-serif" font-size="17" fill="#7E7E88">8-bit 像素 · 钴蓝 + 白</text></svg>